<svg width="112" height="27" viewBox="0 0 112 27" fill="none" xmlns="http://www.w3.org/2000/svg">
<path d="M43.274 13.23H42.122V18H39.17V5.526H43.256C44.96 5.526 46.238 5.838 47.09 6.462C47.954 7.086 48.386 8.04 48.386 9.324C48.386 10.128 48.194 10.8 47.81 11.34C47.426 11.868 46.82 12.318 45.992 12.69L49.16 18H45.83L43.274 13.23ZM42.122 11.196H43.364C44.024 11.196 44.516 11.046 44.84 10.746C45.176 10.446 45.344 9.972 45.344 9.324C45.344 8.724 45.164 8.286 44.804 8.01C44.456 7.734 43.916 7.596 43.184 7.596H42.122V11.196ZM58.2957 13.032C58.2957 13.428 58.2777 13.77 58.2417 14.058H52.3197C52.4157 14.862 52.6437 15.426 53.0037 15.75C53.3637 16.074 53.8617 16.236 54.4977 16.236C54.8817 16.236 55.2537 16.17 55.6137 16.038C55.9737 15.894 56.3637 15.678 56.7837 15.39L57.9537 16.974C56.8377 17.862 55.5957 18.306 54.2277 18.306C52.6797 18.306 51.4917 17.85 50.6637 16.938C49.8357 16.026 49.4217 14.802 49.4217 13.266C49.4217 12.294 49.5957 11.424 49.9437 10.656C50.2917 9.876 50.8017 9.264 51.4737 8.82C52.1457 8.364 52.9497 8.136 53.8857 8.136C55.2657 8.136 56.3457 8.568 57.1257 9.432C57.9057 10.296 58.2957 11.496 58.2957 13.032ZM55.5057 12.222C55.4817 10.758 54.9657 10.026 53.9577 10.026C53.4657 10.026 53.0817 10.206 52.8057 10.566C52.5417 10.926 52.3797 11.52 52.3197 12.348H55.5057V12.222ZM68.4613 4.644V18H65.9413L65.7973 16.884C65.1253 17.832 64.2193 18.306 63.0793 18.306C61.8913 18.306 60.9853 17.85 60.3613 16.938C59.7493 16.026 59.4433 14.778 59.4433 13.194C59.4433 12.222 59.6053 11.352 59.9293 10.584C60.2533 9.816 60.7093 9.216 61.2973 8.784C61.8973 8.352 62.5813 8.136 63.3493 8.136C64.2613 8.136 65.0173 8.436 65.6173 9.036V4.338L68.4613 4.644ZM63.9613 16.218C64.6213 16.218 65.1733 15.858 65.6173 15.138V11.016C65.3893 10.74 65.1553 10.536 64.9153 10.404C64.6873 10.272 64.4233 10.206 64.1233 10.206C63.5953 10.206 63.1753 10.452 62.8633 10.944C62.5513 11.436 62.3953 12.192 62.3953 13.212C62.3953 14.328 62.5273 15.108 62.7913 15.552C63.0673 15.996 63.4573 16.218 63.9613 16.218ZM74.8263 8.136C76.2903 8.136 77.4363 8.586 78.2643 9.486C79.0923 10.374 79.5063 11.622 79.5063 13.23C79.5063 14.25 79.3143 15.144 78.9303 15.912C78.5583 16.668 78.0183 17.256 77.3103 17.676C76.6143 18.096 75.7863 18.306 74.8263 18.306C73.3743 18.306 72.2283 17.862 71.3883 16.974C70.5603 16.074 70.1463 14.82 70.1463 13.212C70.1463 12.192 70.3323 11.304 70.7043 10.548C71.0883 9.78 71.6283 9.186 72.3243 8.766C73.0323 8.346 73.8663 8.136 74.8263 8.136ZM74.8263 10.224C74.2503 10.224 73.8183 10.47 73.5303 10.962C73.2423 11.442 73.0983 12.192 73.0983 13.212C73.0983 14.256 73.2363 15.018 73.5123 15.498C73.8003 15.978 74.2383 16.218 74.8263 16.218C75.4023 16.218 75.8343 15.978 76.1223 15.498C76.4103 15.006 76.5543 14.25 76.5543 13.23C76.5543 12.186 76.4103 11.424 76.1223 10.944C75.8463 10.464 75.4143 10.224 74.8263 10.224ZM87.192 17.55C86.844 17.79 86.436 17.976 85.968 18.108C85.512 18.24 85.056 18.306 84.6 18.306C82.512 18.294 81.468 17.142 81.468 14.85V10.422H80.118V8.442H81.468V6.372L84.312 6.048V8.442H86.508L86.202 10.422H84.312V14.814C84.312 15.258 84.384 15.576 84.528 15.768C84.672 15.96 84.9 16.056 85.212 16.056C85.536 16.056 85.878 15.954 86.238 15.75L87.192 17.55ZM91.965 8.136C93.429 8.136 94.575 8.586 95.403 9.486C96.231 10.374 96.645 11.622 96.645 13.23C96.645 14.25 96.453 15.144 96.069 15.912C95.697 16.668 95.157 17.256 94.449 17.676C93.753 18.096 92.925 18.306 91.965 18.306C90.513 18.306 89.367 17.862 88.527 16.974C87.699 16.074 87.285 14.82 87.285 13.212C87.285 12.192 87.471 11.304 87.843 10.548C88.227 9.78 88.767 9.186 89.463 8.766C90.171 8.346 91.005 8.136 91.965 8.136ZM91.965 10.224C91.389 10.224 90.957 10.47 90.669 10.962C90.381 11.442 90.237 12.192 90.237 13.212C90.237 14.256 90.375 15.018 90.651 15.498C90.939 15.978 91.377 16.218 91.965 16.218C92.541 16.218 92.973 15.978 93.261 15.498C93.549 15.006 93.693 14.25 93.693 13.23C93.693 12.186 93.549 11.424 93.261 10.944C92.985 10.464 92.553 10.224 91.965 10.224ZM102.477 8.136C103.941 8.136 105.087 8.586 105.915 9.486C106.743 10.374 107.157 11.622 107.157 13.23C107.157 14.25 106.965 15.144 106.581 15.912C106.209 16.668 105.669 17.256 104.961 17.676C104.265 18.096 103.437 18.306 102.477 18.306C101.025 18.306 99.8787 17.862 99.0387 16.974C98.2107 16.074 97.7967 14.82 97.7967 13.212C97.7967 12.192 97.9827 11.304 98.3547 10.548C98.7387 9.78 99.2787 9.186 99.9747 8.766C100.683 8.346 101.517 8.136 102.477 8.136ZM102.477 10.224C101.901 10.224 101.469 10.47 101.181 10.962C100.893 11.442 100.749 12.192 100.749 13.212C100.749 14.256 100.887 15.018 101.163 15.498C101.451 15.978 101.889 16.218 102.477 16.218C103.053 16.218 103.485 15.978 103.773 15.498C104.061 15.006 104.205 14.25 104.205 13.23C104.205 12.186 104.061 11.424 103.773 10.944C103.497 10.464 103.065 10.224 102.477 10.224ZM109.717 15.048C110.161 15.048 110.539 15.21 110.851 15.534C111.175 15.846 111.337 16.224 111.337 16.668C111.337 17.124 111.175 17.514 110.851 17.838C110.539 18.15 110.161 18.306 109.717 18.306C109.261 18.306 108.871 18.15 108.547 17.838C108.235 17.514 108.079 17.124 108.079 16.668C108.079 16.224 108.235 15.846 108.547 15.534C108.871 15.21 109.261 15.048 109.717 15.048Z" fill="#263D68"/>
<path d="M2 3H9.2C10.473 3 11.6939 3.50571 12.5941 4.40589C13.4943 5.30606 14 6.52696 14 7.8V24.6C14 23.6452 13.6207 22.7295 12.9456 22.0544C12.2705 21.3793 11.3548 21 10.4 21H2V3Z" fill="#E842CD" stroke="#263D68" stroke-width="3" stroke-linecap="round" stroke-linejoin="round"/>
<path d="M26 3H18.8C17.527 3 16.3061 3.50571 15.4059 4.40589C14.5057 5.30606 14 6.52696 14 7.8V24.6C14 23.6452 14.3793 22.7295 15.0544 22.0544C15.7295 21.3793 16.6452 21 17.6 21H26V3Z" fill="#E842CD" stroke="#263D68" stroke-width="3" stroke-linecap="round" stroke-linejoin="round"/>
</svg>
